# xmcd
#
# Track frame offsets:
# 150
# 18946
# 57619
# 82416
# 118260
# 140028
# 170293
# 218753
# 236089
# 262434
#
# Disc length: 3936 seconds
#
#
# Revision: 0
# Processed by: cddbd v1.5.2PL0 Copyright (c) Steve Scherf et al.
# Submitted via: FreeRIP 2.96 
#
DISCID=a00f5e0a
DTITLE=Collins, Suzanne - Gefährliche Liebe
DYEAR=2010
DGENRE=Speech
TTITLE0=28 Als wir in die Abenddämmerung hinausrollen
TTITLE1=29 Am nächsten Tag steht Training auf dem Programm
TTITLE2=30 Der nächste und letzte Tag des Trainings endet
TTITLE3=31 Als wir uns alle beim Abendessen versammeln
TTITLE4=32 Es ist der reine Luxus mit Peeta in einem Bett zu schlafen
TTITLE5=33 Die anderen Tribute haben sich bereits versammelt
TTITLE6=34 Das Publikum ist erst starr vor Staunen
TTITLE7=35 Cinna, der mir beim Ankleiden für die Spiele helfen wird
TTITLE8=36 Der Feind
TTITLE9=37 Auch wenn Haymitch mein Mentor ist
EXTD=gelesen Maria Koschny
EXTT0=
EXTT1=
EXTT2=
EXTT3=
EXTT4=
EXTT5=
EXTT6=
EXTT7=
EXTT8=
EXTT9=
PLAYORDER=
